<svg width="837" height="286" viewBox="0 0 837 286" fill="none" xmlns="http://www.w3.org/2000/svg">
<rect x="10.7224" y="83.5219" width="56.4337" height="18.3409" rx="1.41084" fill="#D9D9D9"/>
<rect x="10.7224" y="110.328" width="56.4337" height="18.3409" rx="1.41084" fill="#BD7724"/>
<rect x="10.7224" y="137.134" width="56.4337" height="18.3409" rx="1.41084" fill="#D9D9D9"/>
<rect x="82.1111" y="110.328" width="56.4337" height="18.3409" rx="1.41084" fill="#D9D9D9"/>
<rect x="154.346" y="110.328" width="56.4337" height="18.3409" rx="1.41084" fill="#BD7724"/>
<rect x="154.346" y="83.5219" width="56.4337" height="18.3409" rx="1.41084" fill="#D9D9D9"/>
<rect x="154.346" y="137.134" width="56.4337" height="18.3409" rx="1.41084" fill="#BD7724"/>
<path fill-rule="evenodd" clip-rule="evenodd" d="M85.1097 226.119H64.9613C60.7926 226.119 60.7926 233.635 64.9613 233.635H155.976C160.145 233.635 159.798 226.119 155.976 226.119H137.218L130.617 197.21H206.695C213.643 197.21 220.938 191.718 220.938 185.358V82.1538C220.938 74.6376 215.032 68.5668 206.695 68.5668H17.0219C2.08428 68.5668 0 75.2158 0 82.1538V185.069C-5.70739e-06 194.132 6.48987 197.21 17.0219 197.21H91.0152L85.1097 226.119ZM13.8079 71.9528C8.05207 71.9528 3.38601 76.6189 3.38601 82.3748V173.816H217.552V82.3748C217.552 76.6189 212.886 71.9528 207.13 71.9528H13.8079Z" fill="#D9D9D9"/>
<g clip-path="url(#clip0_109_14)">
<path d="M124.489 48.9798C116.522 41.6105 104.13 41.6132 96.1661 48.9798C95.8666 49.2569 95.8608 49.7259 96.1504 50.0133L97.6902 51.5409C97.9663 51.8152 98.4106 51.8211 98.6975 51.558C105.26 45.5463 115.395 45.545 121.959 51.558C122.245 51.8211 122.69 51.8148 122.966 51.5409L124.506 50.0133C124.795 49.7259 124.789 49.2569 124.489 48.9798ZM110.328 57.8444C108.738 57.8444 107.45 59.1328 107.45 60.7226C107.45 62.3123 108.738 63.6007 110.328 63.6007C111.918 63.6007 113.206 62.3123 113.206 60.7226C113.206 59.1328 111.918 57.8444 110.328 57.8444ZM119.442 54.0854C114.259 49.5015 106.391 49.5064 101.214 54.0854C100.903 54.3597 100.893 54.8359 101.188 55.1264L102.737 56.655C103.007 56.9212 103.441 56.9392 103.728 56.6909C107.504 53.4274 113.16 53.4346 116.927 56.6909C117.214 56.9392 117.649 56.9216 117.918 56.655L119.467 55.1264C119.762 54.8359 119.752 54.3592 119.442 54.0854Z" fill="#BD7724"/>
</g>
<g clip-path="url(#clip1_109_14)">
<path d="M113.723 182.092C115.146 183.109 116.073 184.772 116.073 186.654C116.073 189.745 113.569 192.251 110.48 192.258C107.396 192.265 104.87 189.75 104.865 186.663C104.863 184.781 105.789 183.114 107.211 182.095C107.475 181.907 107.843 181.986 108.001 182.269L108.359 182.903C108.492 183.141 108.429 183.441 108.209 183.604C107.272 184.3 106.673 185.403 106.673 186.652C106.671 188.738 108.356 190.45 110.469 190.45C112.539 190.45 114.279 188.774 114.265 186.629C114.258 185.459 113.707 184.329 112.726 183.602C112.507 183.439 112.446 183.138 112.579 182.903L112.936 182.269C113.095 181.988 113.461 181.905 113.723 182.092ZM111.373 186.835V181.412C111.373 181.112 111.131 180.87 110.83 180.87H110.107C109.807 180.87 109.565 181.112 109.565 181.412V186.835C109.565 187.136 109.807 187.377 110.107 187.377H110.83C111.131 187.377 111.373 187.136 111.373 186.835Z" fill="black"/>
</g>
<path d="M250.889 232.13C245.208 232.13 241.105 231.263 238.58 229.527C236.212 227.791 234.713 225.581 234.082 222.898C233.451 220.058 233.135 217.059 233.135 213.903V84.4169C233.135 81.4184 233.451 78.6567 234.082 76.1316C234.713 73.4488 236.291 71.2394 238.816 69.5035C241.341 67.7675 245.523 66.8995 251.362 66.8995C255.308 66.8995 258.306 67.1363 260.358 67.6097C262.409 68.0831 263.909 68.7933 264.856 69.7402C265.802 70.5292 266.828 71.4761 267.933 72.5808L321.195 144.544H317.644L371.143 72.5808C372.406 71.0027 373.668 69.8191 374.931 69.03C376.193 68.2409 377.771 67.6886 379.665 67.373C381.717 67.0573 384.557 66.8995 388.187 66.8995C393.868 66.8995 397.971 67.7675 400.496 69.5035C403.021 71.2394 404.6 73.5277 405.231 76.3684C405.862 79.0512 406.178 81.8918 406.178 84.8903V214.376C406.178 217.375 405.862 220.216 405.231 222.898C404.6 225.581 403.021 227.791 400.496 229.527C397.971 231.263 393.789 232.13 387.95 232.13C382.269 232.13 378.166 231.263 375.641 229.527C373.116 227.791 371.538 225.502 370.906 222.662C370.275 219.821 369.959 216.901 369.959 213.903V129.394L334.688 179.342C334.057 180.131 333.189 181.236 332.084 182.656C330.98 183.918 329.401 185.023 327.35 185.97C325.456 186.917 322.852 187.39 319.538 187.39C316.066 187.39 313.304 186.917 311.253 185.97C309.359 185.023 307.86 183.918 306.755 182.656C305.65 181.393 304.704 180.289 303.914 179.342L268.88 129.63V214.376C268.88 217.375 268.564 220.216 267.933 222.898C267.302 225.581 265.724 227.791 263.199 229.527C260.831 231.263 256.728 232.13 250.889 232.13ZM494.582 69.9769C499.001 69.9769 502.078 70.6871 503.814 72.1074C505.708 73.5277 506.812 75.2637 507.128 77.3152C507.601 79.3668 507.838 81.6551 507.838 84.1801V143.597C507.838 145.964 507.601 148.252 507.128 150.462C506.812 152.671 505.708 154.407 503.814 155.67C501.92 156.932 498.764 157.564 494.345 157.564C489.768 157.564 486.375 156.696 484.166 154.96C481.957 153.066 480.773 150.067 480.615 145.964L484.403 145.017C483.298 147.542 481.483 149.752 478.958 151.645C476.591 153.539 473.829 155.038 470.673 156.143C467.517 157.09 464.045 157.564 460.257 157.564C453.156 157.564 446.527 155.591 440.373 151.645C434.218 147.542 429.247 142.098 425.459 135.312C421.83 128.526 420.015 121.187 420.015 113.297C420.015 105.564 421.909 98.4623 425.696 91.9919C429.484 85.3637 434.376 80.077 440.373 76.1316C446.527 72.0285 453.156 69.9769 460.257 69.9769C464.518 69.9769 468.148 70.6082 471.146 71.8707C474.303 72.9754 476.907 74.3957 478.958 76.1316C481.01 77.8676 482.588 79.5246 483.693 81.1028L480.615 82.0497C480.615 77.7887 481.72 74.7113 483.929 72.8175C486.139 70.9238 489.69 69.9769 494.582 69.9769ZM464.282 130.341C467.28 130.341 469.884 129.63 472.093 128.21C474.303 126.632 476.118 124.58 477.538 122.055C478.958 119.53 479.668 116.769 479.668 113.77C479.668 110.456 478.958 107.537 477.538 105.012C476.118 102.329 474.224 100.277 471.857 98.8568C469.647 97.4365 466.964 96.7263 463.808 96.7263C459.074 96.7263 455.128 98.3834 451.972 101.697C448.816 105.012 447.238 109.115 447.238 114.007C447.238 117.005 447.948 119.767 449.368 122.292C450.946 124.817 452.998 126.79 455.523 128.21C458.048 129.63 460.967 130.341 464.282 130.341Z" fill="#D9D9D9"/>
<path d="M471.8 232.149C465.138 232.149 458.971 230.888 453.299 228.368C447.627 225.847 442.631 222.336 438.31 217.834C434.078 213.333 430.747 208.067 428.317 202.035C425.976 196.003 424.805 189.476 424.805 182.454C424.805 175.792 426.021 169.625 428.452 163.953C430.882 158.192 434.258 153.195 438.58 148.964C442.901 144.643 447.987 141.312 453.839 138.971C459.691 136.54 466.038 135.28 472.88 135.19C475.671 135.19 478.642 135.46 481.793 136C485.033 136.54 488.184 137.35 491.245 138.431C494.306 139.511 496.962 140.816 499.213 142.347C501.013 143.517 502.589 144.778 503.939 146.128C505.38 147.388 506.1 148.919 506.1 150.719C506.19 151.62 506.01 152.655 505.56 153.825C505.109 154.906 504.479 156.031 503.669 157.201C502.229 159.272 500.788 160.757 499.348 161.658C497.997 162.558 496.647 163.008 495.297 163.008C494.576 163.008 493.721 162.783 492.731 162.333C491.74 161.883 490.39 161.117 488.68 160.037C487.869 159.497 486.609 158.912 484.898 158.282C483.188 157.651 481.207 157.111 478.957 156.661C476.796 156.121 474.545 155.851 472.205 155.851C467.073 155.851 462.482 157.021 458.431 159.362C454.379 161.613 451.183 164.764 448.843 168.815C446.592 172.866 445.422 177.547 445.332 182.859C445.422 188.261 446.637 193.122 448.978 197.443C451.318 201.675 454.514 205.051 458.566 207.571C462.707 210.092 467.298 211.352 472.34 211.352C474.14 211.352 475.941 211.262 477.741 211.082C479.632 210.902 481.432 210.632 483.143 210.272C484.943 209.822 486.564 209.282 488.004 208.652V192.177H473.555C472.025 192.177 470.629 192.042 469.369 191.772C468.198 191.502 467.208 190.736 466.398 189.476C465.678 188.216 465.318 186.145 465.318 183.264C465.318 180.383 465.723 178.358 466.533 177.187C467.343 175.927 468.379 175.162 469.639 174.892C470.989 174.622 472.385 174.486 473.825 174.486H499.348C502.319 174.577 504.434 175.117 505.695 176.107C506.955 177.097 507.765 178.358 508.125 179.888C508.485 181.329 508.666 182.904 508.666 184.615V214.053C508.666 216.214 507.675 218.465 505.695 220.805C503.714 223.056 501.013 225.037 497.592 226.747C495.432 227.917 492.956 228.908 490.165 229.718C487.464 230.438 484.583 231.023 481.522 231.474C478.462 231.924 475.221 232.149 471.8 232.149ZM554.693 232.284C548.391 232.284 542.945 231.248 538.353 229.178C533.852 227.107 530.161 224.406 527.28 221.075C524.399 217.654 522.239 213.873 520.798 209.732C519.448 205.591 518.772 201.45 518.772 197.308C518.772 190.556 520.303 184.569 523.364 179.348C526.425 174.126 530.656 170.03 536.058 167.059C541.459 163.998 547.671 162.468 554.693 162.468C559.915 162.468 564.416 163.323 568.197 165.034C572.068 166.654 575.219 168.815 577.65 171.516C580.171 174.126 582.016 176.962 583.187 180.023C584.447 183.084 585.077 186.01 585.077 188.801C585.077 193.752 583.862 197.443 581.431 199.874C579.091 202.215 576.075 203.385 572.384 203.385H540.244C540.424 205.726 541.234 207.706 542.675 209.327C544.205 210.947 546.096 212.208 548.346 213.108C550.597 214.008 552.983 214.458 555.503 214.458C557.664 214.458 559.555 214.368 561.175 214.188C562.796 213.918 564.191 213.603 565.361 213.243C566.532 212.793 567.612 212.388 568.602 212.028C569.593 211.578 570.448 211.217 571.168 210.947C571.978 210.677 572.744 210.497 573.464 210.407C574.814 210.317 576.03 210.722 577.11 211.623C578.28 212.433 579.316 213.693 580.216 215.404C580.846 216.394 581.251 217.339 581.431 218.24C581.701 219.14 581.836 220.04 581.836 220.94C581.836 223.101 580.711 225.037 578.46 226.747C576.3 228.458 573.194 229.808 569.143 230.798C565.181 231.789 560.365 232.284 554.693 232.284ZM540.244 192.312H561.58C563.021 192.312 564.056 192.087 564.686 191.637C565.406 191.096 565.767 190.106 565.767 188.666C565.767 187.045 565.271 185.65 564.281 184.479C563.291 183.219 561.94 182.274 560.23 181.644C558.609 180.923 556.719 180.563 554.558 180.563C551.767 180.563 549.292 181.103 547.131 182.184C544.97 183.264 543.26 184.705 541.999 186.505C540.829 188.306 540.244 190.241 540.244 192.312ZM618.042 232.149C615.611 232.149 612.955 231.879 610.075 231.338C607.284 230.798 604.538 230.033 601.837 229.043C599.136 227.962 596.886 226.747 595.085 225.397C593.285 223.956 592.249 222.336 591.979 220.535C591.799 219.635 591.799 218.69 591.979 217.699C592.249 216.619 592.699 215.539 593.33 214.458C593.96 213.288 594.725 212.073 595.625 210.812C596.345 209.822 597.156 209.192 598.056 208.922C598.956 208.652 599.992 208.697 601.162 209.057C602.602 209.327 604.043 209.822 605.483 210.542C607.014 211.172 608.499 211.893 609.939 212.703C611.47 213.423 613.045 214.098 614.666 214.729C616.286 215.269 617.952 215.539 619.662 215.539C622.183 215.539 624.119 215.179 625.469 214.458C626.91 213.648 627.63 212.568 627.63 211.217C627.63 210.227 627.315 209.417 626.685 208.787C626.144 208.157 625.334 207.616 624.254 207.166C623.263 206.626 622.093 206.176 620.743 205.816C619.392 205.456 617.907 205.096 616.286 204.736C614.756 204.285 613.18 203.835 611.56 203.385C609.309 202.755 607.149 201.945 605.078 200.954C603.007 199.964 601.117 198.704 599.406 197.173C597.696 195.553 596.345 193.617 595.355 191.367C594.365 189.026 593.87 186.19 593.87 182.859C593.87 178.448 594.905 174.757 596.976 171.786C599.046 168.815 602.062 166.564 606.023 165.034C609.985 163.413 614.801 162.603 620.473 162.603C622.093 162.603 623.714 162.693 625.334 162.873C626.955 163.053 628.53 163.368 630.061 163.818C631.681 164.268 633.256 164.809 634.787 165.439C636.317 166.069 637.848 166.834 639.378 167.734C642.079 168.995 643.475 170.705 643.565 172.866C643.655 175.027 642.889 177.232 641.269 179.483C640.279 181.013 639.243 182.139 638.163 182.859C637.083 183.489 635.957 183.669 634.787 183.399C633.346 183.039 631.771 182.454 630.061 181.644C628.44 180.833 626.685 180.068 624.794 179.348C622.993 178.628 621.193 178.268 619.392 178.268C617.862 178.268 616.556 178.493 615.476 178.943C614.396 179.303 613.586 179.843 613.045 180.563C612.505 181.193 612.235 181.959 612.235 182.859C612.235 184.029 612.55 184.975 613.18 185.695C613.901 186.325 614.846 186.865 616.016 187.315C617.187 187.765 618.537 188.171 620.068 188.531C621.598 188.891 623.263 189.251 625.064 189.611C627.495 190.061 629.97 190.691 632.491 191.502C635.102 192.222 637.443 193.302 639.513 194.743C641.674 196.183 643.384 198.119 644.645 200.549C645.995 202.98 646.67 206.176 646.67 210.137C646.67 217.249 644.195 222.696 639.243 226.477C634.292 230.258 627.225 232.149 618.042 232.149ZM688.18 231.068C683.588 231.068 679.627 230.573 676.296 229.583C673.055 228.593 670.354 227.062 668.194 224.992C666.033 222.921 664.412 220.31 663.332 217.159C662.342 213.918 661.847 210.092 661.847 205.681V150.854C661.847 149.054 661.982 147.433 662.252 145.993C662.612 144.553 663.512 143.382 664.953 142.482C666.393 141.492 668.734 140.996 671.975 140.996C675.216 140.996 677.556 141.492 678.997 142.482C680.437 143.472 681.293 144.733 681.563 146.263C681.923 147.793 682.103 149.459 682.103 151.26V204.871C682.103 206.311 682.193 207.526 682.373 208.517C682.643 209.417 683.003 210.092 683.453 210.542C683.903 210.992 684.533 211.307 685.344 211.488C686.154 211.668 687.144 211.758 688.315 211.758C690.295 211.758 692.051 211.938 693.581 212.298C695.112 212.658 696.282 213.468 697.092 214.729C697.992 215.989 698.443 218.105 698.443 221.075C698.443 224.316 697.947 226.657 696.957 228.098C695.967 229.538 694.661 230.393 693.041 230.663C691.511 230.933 689.89 231.068 688.18 231.068ZM657.66 164.629H672.515L691.15 164.088C692.861 164.088 694.481 164.268 696.012 164.629C697.542 164.899 698.803 165.754 699.793 167.194C700.783 168.635 701.278 171.02 701.278 174.351C701.278 177.412 700.783 179.663 699.793 181.103C698.893 182.544 697.677 183.489 696.147 183.939C694.616 184.299 692.951 184.479 691.15 184.479L673.46 184.074H657.12C654.509 183.984 652.664 183.219 651.584 181.779C650.593 180.248 650.098 177.727 650.098 174.216C650.098 170.975 650.728 168.59 651.989 167.059C653.249 165.439 655.14 164.629 657.66 164.629ZM741.403 232.149C737.172 232.149 732.941 231.338 728.71 229.718C724.568 228.007 720.787 225.622 717.366 222.561C713.945 219.5 711.244 215.854 709.264 211.623C707.283 207.301 706.293 202.53 706.293 197.308C706.293 192.447 707.193 187.946 708.994 183.804C710.794 179.573 713.315 175.837 716.556 172.596C719.797 169.355 723.488 166.834 727.629 165.034C731.861 163.143 736.362 162.198 741.133 162.198C747.615 162.198 753.467 163.773 758.689 166.924C764 169.985 768.231 174.171 771.382 179.483C774.533 184.795 776.109 190.691 776.109 197.173C776.109 202.665 775.073 207.571 773.003 211.893C771.022 216.124 768.321 219.77 764.9 222.831C761.569 225.892 757.833 228.233 753.692 229.853C749.641 231.383 745.545 232.149 741.403 232.149ZM741.133 211.758C743.294 211.758 745.5 211.217 747.75 210.137C750.001 209.057 751.892 207.436 753.422 205.276C754.952 203.115 755.718 200.369 755.718 197.038C755.718 194.157 755.087 191.637 753.827 189.476C752.567 187.315 750.811 185.65 748.561 184.479C746.4 183.219 743.879 182.589 740.998 182.589C738.297 182.589 735.867 183.219 733.706 184.479C731.635 185.74 729.925 187.495 728.575 189.746C727.314 191.907 726.684 194.382 726.684 197.173C726.684 200.414 727.404 203.16 728.845 205.411C730.375 207.571 732.266 209.192 734.516 210.272C736.767 211.262 738.973 211.758 741.133 211.758ZM794.554 231.068C791.223 231.068 788.838 230.618 787.397 229.718C786.047 228.728 785.192 227.422 784.832 225.802C784.561 224.181 784.426 222.516 784.426 220.805V173.676C784.426 171.876 784.606 170.21 784.967 168.68C785.327 167.149 786.182 165.934 787.532 165.034C788.973 164.043 791.358 163.548 794.689 163.548C797.84 163.548 800.091 163.998 801.441 164.899C802.882 165.709 803.782 166.699 804.142 167.869C804.502 168.95 804.682 169.895 804.682 170.705L803.062 171.516C803.242 171.155 803.692 170.525 804.412 169.625C805.223 168.635 806.303 167.644 807.653 166.654C809.004 165.574 810.624 164.674 812.515 163.953C814.495 163.233 816.746 162.873 819.267 162.873C820.257 162.873 821.337 162.963 822.508 163.143C823.768 163.233 825.029 163.503 826.289 163.953C827.639 164.313 828.855 164.854 829.935 165.574C831.015 166.204 831.871 167.014 832.501 168.005C833.221 168.995 833.581 170.21 833.581 171.651C833.581 175.342 832.726 178.493 831.015 181.103C829.305 183.624 827.144 184.885 824.533 184.885C823.003 184.885 821.923 184.75 821.292 184.479C820.662 184.209 820.122 183.939 819.672 183.669C819.312 183.399 818.862 183.174 818.322 182.994C817.781 182.724 816.791 182.589 815.351 182.589C814 182.589 812.695 182.769 811.434 183.129C810.264 183.489 809.139 184.074 808.058 184.885C807.068 185.605 806.258 186.55 805.628 187.72C805.088 188.801 804.817 190.016 804.817 191.367V221.075C804.817 222.786 804.637 224.451 804.277 226.072C804.007 227.602 803.152 228.818 801.712 229.718C800.271 230.618 797.885 231.068 794.554 231.068Z" fill="#BD7724"/>
<defs>
<clipPath id="clip0_109_14">
<rect width="28.7812" height="28.7812" fill="white" transform="translate(95.9373 43.4539)"/>
</clipPath>
<clipPath id="clip1_109_14">
<rect width="11.5689" height="11.5689" fill="white" transform="translate(104.684 180.87)"/>
</clipPath>
</defs>
</svg>
